<?xml version="1.0" encoding="UTF-8"?>
<svg version="1.1" xmlns="http://www.w3.org/2000/svg" width="128" height="128">
<path d="M0 0 C4.69109734 2.01484744 9.41951824 3.02754213 14.453125 3.83984375 C20.77802994 5.87158696 24.58179237 11.08095479 28.375 16.23828125 C29.21052356 17.35317492 30.04645557 18.46776261 30.8828125 19.58203125 C31.66398437 20.62359375 32.44515625 21.66515625 33.25 22.73828125 C34.01054688 23.57359375 34.77109375 24.40890625 35.5546875 25.26953125 C37.751866 28.46910916 37.83632561 29.91074768 37.25 33.73828125 C36.18709528 36.52252725 34.84550384 39.11461035 33.4375 41.73828125 C33.08107422 42.4240625 32.72464844 43.10984375 32.35742188 43.81640625 C31.65791636 45.16151044 30.95346532 46.50405645 30.24365234 47.84375 C29.31881085 49.60708415 28.43312792 51.39080409 27.55078125 53.17578125 C26.25 55.73828125 26.25 55.73828125 25.25 56.73828125 C22.55917128 56.56192673 19.92148554 56.11992204 17.25 55.73828125 C16.92 57.71828125 16.59 59.69828125 16.25 61.73828125 C17.405 61.77953125 18.56 61.82078125 19.75 61.86328125 C25.03232451 62.53762055 28.52235429 65.03537655 32.25 68.73828125 C34.65862208 71.93850104 36.25 74.63099942 36.25 78.73828125 C35.38117188 78.7640625 34.51234375 78.78984375 33.6171875 78.81640625 C26.68438301 79.1576181 23.02773339 79.84459135 17.25 83.73828125 C12.42818848 84.27015015 7.86647925 84.27710767 3.25 82.73828125 C2.404375 82.77953125 1.55875 82.82078125 0.6875 82.86328125 C-0.116875 82.82203125 -0.92125 82.78078125 -1.75 82.73828125 C-2.41 81.74828125 -3.07 80.75828125 -3.75 79.73828125 C-6.359621 79.3541685 -8.7558074 79.13534928 -11.375 79.05078125 C-12.08140625 79.01662109 -12.7878125 78.98246094 -13.515625 78.94726562 C-15.25985688 78.86476817 -17.00490395 78.7998479 -18.75 78.73828125 C-19.03875 79.37765625 -19.3275 80.01703125 -19.625 80.67578125 C-20.75 82.73828125 -20.75 82.73828125 -22.75 83.73828125 C-28.49659864 84.20171662 -28.49659864 84.20171662 -30.75 83.73828125 C-31.34554687 83.08730469 -31.94109375 82.43632813 -32.5546875 81.765625 C-35.61331155 78.94102379 -37.90129701 79.14008506 -42 78.98828125 C-43.89492187 78.90320313 -43.89492187 78.90320313 -45.828125 78.81640625 C-46.79234375 78.790625 -47.7565625 78.76484375 -48.75 78.73828125 C-49.245 80.71828125 -49.245 80.71828125 -49.75 82.73828125 C-55.50653756 84.23071691 -60.79663195 85.34370851 -66.75 84.73828125 C-69.25 82.86328125 -69.25 82.86328125 -70.75 80.73828125 C-70.75 80.07828125 -70.75 79.41828125 -70.75 78.73828125 C-74.05 78.73828125 -77.35 78.73828125 -80.75 78.73828125 C-79.82841756 74.43756318 -78.49481665 72.2546605 -75.16015625 69.52734375 C-74.52343994 69.00092285 -73.88672363 68.47450195 -73.23071289 67.93212891 C-72.74207764 67.53815918 -72.25344238 67.14418945 -71.75 66.73828125 C-72.21897705 66.37065674 -72.6879541 66.00303223 -73.17114258 65.62426758 C-75.30826333 63.94138083 -77.43536574 62.24627004 -79.5625 60.55078125 C-80.30048828 59.97263672 -81.03847656 59.39449219 -81.79882812 58.79882812 C-89.18250166 52.88520724 -89.18250166 52.88520724 -90.75 48.73828125 C-90.56478979 43.88312788 -88.62416781 39.90018728 -86.5 35.61328125 C-84.16459682 30.82059159 -82.09423661 26.06095738 -80.25 21.05078125 C-78.51501183 16.85322922 -77.19107214 14.53347833 -72.82421875 12.6484375 C-70.16688292 11.48241255 -67.866472 9.94947876 -65.4375 8.36328125 C-61.78373623 6.02948983 -58.12896692 3.69959145 -54.4375 1.42578125 C-53.67824219 0.95527344 -52.91898438 0.48476563 -52.13671875 0 C-35.85590751 -8.60671363 -16.20353492 -7.04030357 0 0 Z M-68.375 64.23828125 C-68.82875 64.73328125 -69.2825 65.22828125 -69.75 65.73828125 C-68.1 65.73828125 -66.45 65.73828125 -64.75 65.73828125 C-64.75 64.74828125 -64.75 63.75828125 -64.75 62.73828125 C-66.87364481 62.51218788 -66.87364481 62.51218788 -68.375 64.23828125 Z " fill="#F8B46A" transform="translate(90.75,24.26171875)"/>
<path d="M0 0 C2.5625 1.5 2.5625 1.5 4 3 C3.58894145 8.24099655 2.75960806 11.24039194 -1 15 C-1.66 15 -2.32 15 -3 15 C-2.77688796 19.16655737 -2.77688796 19.16655737 -0.4375 22.375 C3.8483335 23.47393167 7.91442107 23.98899477 11.96875 22.06640625 C12.88140625 21.50759766 12.88140625 21.50759766 13.8125 20.9375 C14.864375 20.298125 15.91625 19.65875 17 19 C17.99 19.33 18.98 19.66 20 20 C16.62695042 24.67126797 13.31899529 29.16089308 9 33 C8.34 33 7.68 33 7 33 C6.96261719 33.71285156 6.92523438 34.42570312 6.88671875 35.16015625 C6.48088148 41.07264824 5.88473305 45.78529026 3 51 C-0.21436529 53.14291019 -2.17426609 53.30025791 -5.96484375 53.4609375 C-9.07122275 52.75738141 -10.15402052 51.57864096 -12 49 C-12.2911521 46.26317029 -12.38322418 43.96059961 -12.25 41.25 C-12.23195313 40.55261719 -12.21390625 39.85523438 -12.1953125 39.13671875 C-12.14838554 37.42388461 -12.07664605 35.71176176 -12 34 C-12.73605469 33.7421875 -13.47210938 33.484375 -14.23046875 33.21875 C-17.09279485 31.95916503 -18.98446209 30.56936703 -21.3125 28.5 C-22.35857422 27.58734375 -22.35857422 27.58734375 -23.42578125 26.65625 C-25 25 -25 25 -25 23 C-22.23723823 23.52268466 -19.6739124 24.10869587 -17 25 C-12.43812214 25.25343766 -9.12848928 25.00169177 -5 23 C-5 20.69 -5 18.38 -5 16 C-6.0828125 15.9071875 -6.0828125 15.9071875 -7.1875 15.8125 C-11.02257696 14.70458888 -12.59272465 13.16384761 -15 10 C-15.3125 6.1875 -15.3125 6.1875 -15 3 C-10.01084382 -0.07024996 -5.73159633 -0.84831976 0 0 Z " fill="#DD5F4E" transform="translate(68,55)"/>
<path d="M0 0 C2.5625 1.5 2.5625 1.5 4 3 C3.58894145 8.24099655 2.75960806 11.24039194 -1 15 C-1.66 15 -2.32 15 -3 15 C-2.77688796 19.16655737 -2.77688796 19.16655737 -0.4375 22.375 C3.8483335 23.47393167 7.91442107 23.98899477 11.96875 22.06640625 C12.88140625 21.50759766 12.88140625 21.50759766 13.8125 20.9375 C14.864375 20.298125 15.91625 19.65875 17 19 C17.99 19.33 18.98 19.66 20 20 C16.62695042 24.67126797 13.31899529 29.16089308 9 33 C8.34 33 7.68 33 7 33 C6.5359375 31.7934375 6.5359375 31.7934375 6.0625 30.5625 C5.23664655 28.10919595 5.23664655 28.10919595 4 27 C-1.6965064 27.10732548 -7.55477902 27.34622781 -13 29.125 C-16.26949787 30.07860355 -17.83032209 30.19933759 -21 29 C-23.3125 27.0625 -23.3125 27.0625 -25 25 C-25 24.34 -25 23.68 -25 23 C-22.23723823 23.52268466 -19.6739124 24.10869587 -17 25 C-12.43812214 25.25343766 -9.12848928 25.00169177 -5 23 C-5 20.69 -5 18.38 -5 16 C-6.0828125 15.9071875 -6.0828125 15.9071875 -7.1875 15.8125 C-11.02257696 14.70458888 -12.59272465 13.16384761 -15 10 C-15.3125 6.1875 -15.3125 6.1875 -15 3 C-10.01084382 -0.07024996 -5.73159633 -0.84831976 0 0 Z " fill="#583033" transform="translate(68,55)"/>
<path d="M0 0 C1.65 0 3.3 0 5 0 C5.12375 1.423125 5.12375 1.423125 5.25 2.875 C5.67885558 5.98346586 5.67885558 5.98346586 7.5625 7.375 C11.8483335 8.47393167 15.91442107 8.98899477 19.96875 7.06640625 C20.5771875 6.69386719 21.185625 6.32132812 21.8125 5.9375 C22.864375 5.298125 23.91625 4.65875 25 4 C25.99 4.33 26.98 4.66 28 5 C24.62695042 9.67126797 21.31899529 14.16089308 17 18 C16.34 18 15.68 18 15 18 C14.5359375 16.7934375 14.5359375 16.7934375 14.0625 15.5625 C13.23664655 13.10919595 13.23664655 13.10919595 12 12 C6.3034936 12.10732548 0.44522098 12.34622781 -5 14.125 C-8.26949787 15.07860355 -9.83032209 15.19933759 -13 14 C-15.3125 12.0625 -15.3125 12.0625 -17 10 C-17 9.34 -17 8.68 -17 8 C-14.23723823 8.52268466 -11.6739124 9.10869587 -9 10 C-4.43812214 10.25343766 -1.12848928 10.00169177 3 8 C3 5.69 3 3.38 3 1 C2.01 0.67 1.02 0.34 0 0 Z " fill="#663B38" transform="translate(60,70)"/>
<path d="M0 0 C2 1 2 1 3.1328125 3.3125 C4.59940309 9.54881313 3.99992206 15.86559199 3.74609375 22.234375 C3.61299634 28.52909968 3.71165035 32.24126465 8 37 C9.1446875 37.9590625 9.1446875 37.9590625 10.3125 38.9375 C12 41 12 41 11.875 44.5625 C11 48 11 48 9 51 C5.375 51.1875 5.375 51.1875 2 51 C2.495 49.9790625 2.495 49.9790625 3 48.9375 C4.22916649 45.32682343 4.39331477 42.80204278 4 39 C2.97188703 37.36144495 1.94262748 35.72350164 0.89453125 34.09765625 C-1.29517819 28.96283543 -0.73460233 22.20380698 1 17 C1.09475844 15.04351683 1.12988471 13.08377045 1.125 11.125 C1.12757812 10.09632812 1.13015625 9.06765625 1.1328125 8.0078125 C1.00995061 5.225352 0.62944236 2.70760126 0 0 Z " fill="#DF9759" transform="translate(96,37)"/>
<path d="M0 0 C0.66 0 1.32 0 2 0 C2.09796875 0.67804687 2.1959375 1.35609375 2.296875 2.0546875 C3.10060347 7.05720436 4.08482954 11.53562196 6.125 16.1875 C8.08596028 20.79722007 8.50759448 24.00865423 8 29 C7.649375 29.78375 7.29875 30.5675 6.9375 31.375 C5.44006114 35.5678288 6.3764103 39.66015277 7 44 C8.2065625 44.185625 8.2065625 44.185625 9.4375 44.375 C10.283125 44.58125 11.12875 44.7875 12 45 C12.33 45.66 12.66 46.32 13 47 C11.22483971 46.60217121 9.45490837 46.18096339 7.6875 45.75 C6.70136719 45.51796875 5.71523438 45.2859375 4.69921875 45.046875 C1.65580355 43.86650557 0.66584638 42.75177354 -1 40 C-0.6390625 39.29875 -0.278125 38.5975 0.09375 37.875 C5.19691254 27.44186769 4.4460131 21.89832835 0.890625 11.14453125 C-0.22490325 7.20593369 -0.31811046 4.05590836 0 0 Z " fill="#DD9557" transform="translate(25,46)"/>
<path d="M0 0 C0.33 0.66 0.66 1.32 1 2 C0.06421005 4.35981813 -0.93347808 6.69631264 -2 9 C-6.95 9 -11.9 9 -17 9 C-17 7.68 -17 6.36 -17 5 C-11.72 4.34 -6.44 3.68 -1 3 C-0.67 2.01 -0.34 1.02 0 0 Z " fill="#DF985A" transform="translate(90,94)"/>
<path d="M0 0 C0.99 0.33 1.98 0.66 3 1 C5.05893621 1.22325814 7.12233653 1.40705759 9.1875 1.5625 C10.27417969 1.64628906 11.36085938 1.73007813 12.48046875 1.81640625 C13.72763672 1.90728516 13.72763672 1.90728516 15 2 C15 3.32 15 4.64 15 6 C10.38 6 5.76 6 1 6 C0.67 4.02 0.34 2.04 0 0 Z " fill="#E09A5A" transform="translate(41,97)"/>
<path d="M0 0 C2 1 2 1 3.12109375 3.3046875 C4.37994769 8.59746896 4.16954855 13.70769465 4.0625 19.125 C4.02801369 21.27336944 3.99788583 23.42181441 3.97265625 25.5703125 C3.95468994 26.51664551 3.93672363 27.46297852 3.91821289 28.43798828 C3.9935239 30.79713371 4.32428229 32.74804907 5 35 C2.40604252 33.10147348 2.01343973 32.08279281 1.48828125 28.84765625 C1.43027344 27.59855469 1.37226562 26.34945312 1.3125 25.0625 C1.27833984 24.39879395 1.24417969 23.73508789 1.20898438 23.05126953 C0.96705813 17.89552504 0.94686605 12.74610241 1.0625 7.5859375 C0.99869073 4.9458291 0.59348802 2.56869032 0 0 Z " fill="#D18A51" transform="translate(96,37)"/>
<path d="M0 0 C2.4375 0.1875 2.4375 0.1875 3.4375 1.1875 C3.625 3.625 3.625 3.625 3.4375 6.1875 C2.7775 6.8475 2.1175 7.5075 1.4375 8.1875 C-1.1875 7.8125 -1.1875 7.8125 -3.5625 7.1875 C-4.1875 4.8125 -4.1875 4.8125 -4.5625 2.1875 C-2.5625 0.1875 -2.5625 0.1875 0 0 Z " fill="#663F3F" transform="translate(81.5625,48.8125)"/>
<path d="M0 0 C0.71542969 0.14308594 1.43085937 0.28617187 2.16796875 0.43359375 C3.56982422 0.71396484 3.56982422 0.71396484 5 1 C8.99414062 1.79882812 8.99414062 1.79882812 12.98828125 2.59765625 C13.98408203 2.79681641 13.98408203 2.79681641 15 3 C15 3.66 15 4.32 15 5 C10.93148812 6.60848144 8.18960808 7.54353982 4 6 C1.6875 4.0625 1.6875 4.0625 0 2 C0 1.34 0 0.68 0 0 Z " fill="#583033" transform="translate(43,78)"/>
<path d="M0 0 C1.65 0 3.3 0 5 0 C4.67 0.99 4.34 1.98 4 3 C4.99 2.67 5.98 2.34 7 2 C6.67 3.65 6.34 5.3 6 7 C3.625 7.625 3.625 7.625 1 8 C0.34 7.34 -0.32 6.68 -1 6 C-0.625 2.875 -0.625 2.875 0 0 Z " fill="#603737" transform="translate(40,53)"/>
<path d="M0 0 C0.33 0 0.66 0 1 0 C1.92017937 11.63856502 1.92017937 11.63856502 -0.3359375 14.9765625 C-2 16.3125 -2 16.3125 -5 18 C-3 13 -3 13 -1.9375 10.6875 C-0.69520131 7.12624377 -0.38147588 3.75117948 0 0 Z " fill="#D08951" transform="translate(30,67)"/>
<path d="M0 0 C2.97 0.495 2.97 0.495 6 1 C6 1.66 6 2.32 6 3 C3.42786866 4.61949011 2.32330841 5.04408751 -0.75 4.625 C-1.4925 4.41875 -2.235 4.2125 -3 4 C-2.01 2.68 -1.02 1.36 0 0 Z " fill="#582F33" transform="translate(64,77)"/>
<path d="M0 0 C2.31 0 4.62 0 7 0 C7 3 7 3 5.625 4.6875 C4 6 4 6 2 6 C1.34 4.02 0.68 2.04 0 0 Z " fill="#9A4841" transform="translate(73,82)"/>
<path d="M0 0 C-0.33 1.32 -0.66 2.64 -1 4 C-5.75 3.25 -5.75 3.25 -8 1 C-3.375 -1.125 -3.375 -1.125 0 0 Z " fill="#994941" transform="translate(57,84)"/>
</svg>
